<svg xmlns="http://www.w3.org/2000/svg" version="1.1" xmlns:xlink="http://www.w3.org/1999/xlink" xmlns:svgjs="http://svgjs.dev/svgjs" width="1500" height="1500" viewBox="0 0 1500 1500"><rect width="1500" height="1500" fill="#ffffff"></rect><g transform="matrix(0.6666666666666666,0,0,0.6666666666666666,249.39393939393938,515.0120112158639)"><svg viewBox="0 0 396 186" data-background-color="#ed2647" preserveAspectRatio="xMidYMid meet" height="704" width="1500" xmlns="http://www.w3.org/2000/svg" xmlns:xlink="http://www.w3.org/1999/xlink"><g id="tight-bounds" transform="matrix(1,0,0,1,0.2400000000000091,0.12734214598577864)"><svg viewBox="0 0 395.52 185.74531570802844" height="185.74531570802844" width="395.52"><g><svg viewBox="0 0 395.52 185.74531570802844" height="185.74531570802844" width="395.52"><g transform="matrix(1,0,0,1,0,112.19208482580791)"><svg viewBox="0 0 395.52 73.55323088222053" height="73.55323088222053" width="395.52"><g id="textblocktransform"><svg viewBox="0 0 395.52 73.55323088222053" height="73.55323088222053" width="395.52" id="textblock"><g><svg viewBox="0 0 395.52 44.65307674892461" height="44.65307674892461" width="395.52"><g transform="matrix(1,0,0,1,0,0)"><svg width="395.52" viewBox="1.29 -35.79 323.48999999999995 36.519999999999996" height="44.65307674892461" data-palette-color="#ffffff"><path d="M29.66-8.69L29.66-8.69Q29.66-6.67 28.92-5.2 28.17-3.74 26.93-2.71 25.68-1.68 24.06-1.04 22.44-0.39 20.68-0.02 18.92 0.34 17.15 0.46 15.38 0.59 13.84 0.59L13.84 0.59Q12.33 0.59 10.71 0.48 9.08 0.37 7.47 0.1 5.86-0.17 4.3-0.62 2.73-1.07 1.34-1.76L1.34-1.76 1.29-33.2Q2.66-33.76 4.2-34.22 5.74-34.67 7.34-34.97 8.94-35.28 10.52-35.44 12.11-35.6 13.6-35.6L13.6-35.6Q15.33-35.6 17.1-35.38 18.87-35.16 20.51-34.64 22.14-34.13 23.56-33.31 24.98-32.5 26.04-31.3 27.1-30.1 27.7-28.52 28.3-26.93 28.3-24.85L28.3-24.85Q28.3-23.49 27.91-22.29 27.51-21.09 26.78-20.14 26.05-19.19 25-18.52 23.95-17.85 22.63-17.53L22.63-17.53Q24.22-17.11 25.52-16.31 26.83-15.5 27.75-14.36 28.66-13.21 29.16-11.77 29.66-10.33 29.66-8.69ZM17.26-22.61L17.26-22.61Q17.26-23.32 16.97-23.82 16.67-24.32 16.25-24.63 15.82-24.95 15.32-25.1 14.82-25.24 14.43-25.24L14.43-25.24Q13.94-25.24 13.48-25.1 13.01-24.95 12.57-24.76L12.57-24.76 12.43-19.34Q12.99-19.34 13.82-19.43 14.65-19.53 15.42-19.86 16.19-20.19 16.72-20.84 17.26-21.48 17.26-22.61ZM13.79-14.65L13.79-14.65Q13.09-14.65 12.43-14.5L12.43-14.5 12.33-8.94Q12.7-8.86 13.05-8.8 13.4-8.74 13.75-8.74L13.75-8.74Q14.26-8.74 14.87-8.85 15.48-8.96 16.02-9.29 16.55-9.62 16.91-10.18 17.26-10.74 17.26-11.67L17.26-11.67Q17.26-12.6 16.91-13.18 16.55-13.77 16.04-14.1 15.53-14.43 14.92-14.54 14.31-14.65 13.79-14.65ZM60.06-34.38L60.06-34.38Q58.96-25.78 58.18-17.27 57.39-8.76 56.69-0.15L56.69-0.15 46.68 0.59 47.12-3.17Q46.63-2.61 45.98-2.2 45.33-1.78 44.6-1.53 43.87-1.27 43.09-1.16 42.31-1.05 41.6-1.07L41.6-1.07Q39.94-1.1 38.47-1.72 37.01-2.34 35.79-3.38 34.57-4.42 33.59-5.8 32.61-7.18 31.94-8.7 31.27-10.23 30.92-11.82 30.56-13.4 30.56-14.89L30.56-14.89Q30.56-17.09 30.65-19.45 30.73-21.8 30.95-24.17 31.17-26.54 31.53-28.86 31.88-31.18 32.42-33.3L32.42-33.3Q35.4-33.15 38.4-33.03 41.4-32.91 44.38-32.96L44.38-32.96Q43.82-30.83 43.27-28.7 42.72-26.56 42.28-24.4 41.84-22.24 41.57-20.07 41.31-17.9 41.31-15.67L41.31-15.67Q41.31-15.16 41.35-14.21 41.4-13.26 41.61-12.33 41.82-11.4 42.25-10.71 42.67-10.01 43.45-10.01L43.45-10.01Q44.38-10.01 45.11-10.8 45.85-11.6 46.41-12.94 46.97-14.28 47.37-16.04 47.78-17.8 48.06-19.71 48.34-21.63 48.51-23.58 48.68-25.54 48.76-27.26 48.85-28.98 48.89-30.35 48.92-31.71 48.92-32.47L48.92-32.47Q48.92-32.96 48.9-33.42 48.87-33.89 48.83-34.38L48.83-34.38Q50.41-34.33 51.98-34.3 53.54-34.28 55.12-34.28L55.12-34.28Q56.35-34.28 57.58-34.29 58.81-34.3 60.06-34.38ZM61.27-33.69L74.26-34.38 72.55-1.12 62.25-0.59 61.27-33.69ZM87.74-12.94L97.65-12.94 96.62-2.1 76.07-0.49 76.85-35.35 89.54-35.35 87.74-12.94ZM126.45-19.38L126.45-19.38Q126.45-15.97 125.58-13.26 124.7-10.55 123.12-8.46 121.55-6.37 119.37-4.91 117.2-3.44 114.61-2.5 112.03-1.56 109.11-1.12 106.19-0.68 103.12-0.68L103.12-0.68Q101.97-0.68 100.87-0.74 99.77-0.81 98.62-0.93L98.62-0.93 99.31-32.71Q101.99-33.57 104.84-33.92 107.68-34.28 110.49-34.28L110.49-34.28Q113.98-34.28 116.91-33.3 119.84-32.32 121.96-30.43 124.09-28.54 125.27-25.77 126.45-23 126.45-19.38ZM110.83-24.17L109.85-10.01Q111.32-10.23 112.53-10.9 113.74-11.57 114.61-12.56 115.49-13.55 115.97-14.81 116.45-16.06 116.45-17.48L116.45-17.48Q116.45-18.87 116.15-20.08 115.86-21.29 115.2-22.18 114.54-23.07 113.47-23.6 112.39-24.12 110.83-24.17L110.83-24.17ZM152.58-35.6L165.71-35.6 163.46 0.24 152.33 0.73 152.43-18.16 147.4-2.93 143.1-2.93 139.25-16.55 139.2-0.73 127.92-0.39 128.41-34.13 140.95-34.62 145.93-18.46 152.58-35.6ZM185.87-33.89L197.59-33.06 186.12-14.31 186.46-0.49 173.91-0.49 174.2-14.21 165.27-32.32 177.72-33.89 181.63-23.34 185.87-33.89ZM196.96-34.86L223.57-34.91 223.32-24.56 216.05-24.27 214.19-1.12 203.89-0.59 203.94-23.73 196.66-23.34 196.96-34.86ZM253.52-23.54L253.52-23.54Q253.52-21.63 253.19-20.08 252.86-18.53 252.15-17.24 251.44-15.94 250.32-14.84 249.2-13.75 247.61-12.74L247.61-12.74 253.42-2.39 242.44-0.24 238.68-10.64 235.65-10.55 235.21-0.39 224.71-0.39Q224.83-5.96 224.94-11.47 225.05-16.99 225.2-22.56L225.2-22.56Q225.25-25.37 225.3-28.13 225.35-30.88 225.49-33.69L225.49-33.69Q227.2-34.33 228.86-34.74 230.52-35.16 232.19-35.39 233.87-35.62 235.59-35.71 237.31-35.79 239.12-35.79L239.12-35.79Q241.9-35.79 244.5-35.02 247.1-34.25 249.1-32.71 251.1-31.18 252.31-28.88 253.52-26.59 253.52-23.54ZM242.58-22.75L242.58-22.75Q242.58-23.78 242.3-24.63 242.02-25.49 241.47-26.11 240.92-26.73 240.1-27.09 239.29-27.44 238.19-27.44L238.19-27.44Q237.7-27.44 237.24-27.38 236.77-27.32 236.33-27.2L236.33-27.2 235.94-18.12 236.53-18.12Q237.58-18.12 238.66-18.38 239.75-18.65 240.62-19.21 241.48-19.78 242.03-20.65 242.58-21.53 242.58-22.75ZM254.96-33.69L267.95-34.38 266.24-1.12 255.93-0.59 254.96-33.69ZM298.36-22.51L298.36-22.51Q298.36-20.14 297.66-18.31 296.95-16.48 295.71-15.1 294.48-13.72 292.82-12.78 291.16-11.84 289.27-11.24 287.38-10.64 285.35-10.36 283.32-10.08 281.37-10.06L281.37-10.06 281.37 0.34 269.99 0.34Q269.99-2.44 270.01-5.08 270.02-7.71 270.03-10.31 270.04-12.92 270.06-15.55 270.07-18.19 270.09-21L270.09-21Q270.14-23.97 270.12-26.95 270.09-29.93 270.24-32.96L270.24-32.96Q273.36-33.89 276.49-34.35 279.61-34.81 282.93-34.81L282.93-34.81Q284.81-34.81 286.69-34.51 288.57-34.2 290.29-33.54 292.02-32.89 293.49-31.9 294.97-30.91 296.04-29.54 297.12-28.17 297.74-26.42 298.36-24.66 298.36-22.51ZM287.52-21.68L287.52-21.68Q287.52-23.27 286.56-24.16 285.6-25.05 284.06-25.05L284.06-25.05Q283.54-25.05 283-24.96 282.45-24.88 281.96-24.76L281.96-24.76 281.66-17.63Q282.01-17.58 282.32-17.58 282.64-17.58 282.98-17.58L282.98-17.58Q283.86-17.58 284.68-17.87 285.5-18.16 286.13-18.71 286.77-19.26 287.15-20.01 287.52-20.75 287.52-21.68ZM324.78-12.5L324.78-12.5Q324.78-9.16 323.62-6.73 322.46-4.3 320.44-2.72 318.43-1.15 315.73-0.4 313.03 0.34 309.93 0.34L309.93 0.34Q308.74 0.34 307.31 0.02 305.88-0.29 304.42-0.77 302.95-1.25 301.6-1.79 300.24-2.34 299.19-2.83L299.19-2.83 300.27-12.4Q302.34-11.16 304.87-10.51 307.39-9.86 309.84-9.86L309.84-9.86Q310.3-9.86 310.96-9.9 311.62-9.94 312.22-10.12 312.81-10.3 313.23-10.67 313.64-11.04 313.64-11.72L313.64-11.72Q313.64-12.18 313.35-12.51 313.06-12.84 312.59-13.05 312.13-13.26 311.54-13.37 310.96-13.48 310.4-13.53 309.84-13.57 309.35-13.57 308.86-13.57 308.57-13.57L308.57-13.57Q306.47-13.57 304.75-14.23 303.02-14.89 301.79-16.1 300.56-17.31 299.87-19.03 299.19-20.75 299.19-22.85L299.19-22.85Q299.19-25.73 300.35-28.02 301.51-30.3 303.45-31.9 305.39-33.5 307.91-34.35 310.42-35.21 313.11-35.21L313.11-35.21Q314.3-35.21 315.57-35.12 316.84-35.03 318.1-34.81 319.36-34.59 320.55-34.25 321.75-33.91 322.82-33.4L322.82-33.4 321.9-23.49Q320.24-24.05 318.42-24.43 316.6-24.8 314.87-24.8L314.87-24.8Q314.55-24.8 314.05-24.79 313.55-24.78 313-24.72 312.45-24.66 311.89-24.54 311.33-24.41 310.89-24.21 310.45-24 310.18-23.66 309.91-23.32 309.93-22.85L309.93-22.85Q309.96-22.31 310.34-22.02 310.71-21.73 311.31-21.59 311.91-21.46 312.63-21.46 313.35-21.46 314.06-21.5 314.77-21.53 315.38-21.57 315.99-21.61 316.38-21.58L316.38-21.58Q318.33-21.46 319.89-20.75 321.46-20.04 322.54-18.87 323.63-17.7 324.2-16.08 324.78-14.45 324.78-12.5Z" opacity="1" transform="matrix(1,0,0,1,0,0)" fill="#000000" class="wordmark-text-0" data-fill-palette-color="primary" id="text-0"></path></svg></g></svg></g><g transform="matrix(1,0,0,1,75.54432,55.19459649550374)"><svg viewBox="0 0 244.43135999999998 18.358634386716798" height="18.358634386716798" width="244.43135999999998"><g transform="matrix(1,0,0,1,0,0)"><svg width="244.43135999999998" viewBox="2.4989795918367346 -35.5 603.7310204081633 45.35" height="18.358634386716798" data-palette-color="#ffffff"><path d="M37.5 0.05L37.5 0.05Q33.05 0.05 33.05-0.95L33.05-0.95 32-21 25.9-0.7Q25.7-0.1 22.5-0.1 19.3-0.1 19.2-0.65L19.2-0.65 12.9-21.2 12.2-1.25Q12.15-0.5 10.3-0.23 8.45 0.05 7.23 0.05 6 0.05 4.85-0.1L4.85-0.1Q2.45-0.45 2.5-1.35L2.5-1.35 3.65-33.85Q3.65-35.05 9.75-35.05L9.75-35.05Q11.55-35.05 14.15-34.77 16.75-34.5 17.05-33.7L17.05-33.7 22.65-17.95 27.55-33.75Q28-35.05 34.45-35.05L34.45-35.05Q36.3-35.05 38.88-34.77 41.45-34.5 41.45-33.8L41.45-33.8 42.9-1Q42.9-0.45 40.95-0.2 39 0.05 37.5 0.05ZM50.75-18.15L50.75-18.15Q49.35-20.65 49.35-22.23 49.35-23.8 50.2-24.25L50.2-24.25Q53.05-25.5 58.02-25.5 63-25.5 65.05-23.18 67.1-20.85 67.1-16.3L67.1-16.3 67.1-8.4 68.8-8.4Q69.65-8.4 70.12-7.4 70.6-6.4 70.6-4.65 70.6-2.9 69.72-1.2 68.85 0.5 67.35 0.5L67.35 0.5Q64.65 0.5 63-0.95L63-0.95Q62.25-1.55 61.85-2.4L61.85-2.4Q59.55 0.5 54.7 0.5L54.7 0.5Q51.05 0.5 48.55-2.1 46.05-4.7 46.05-8.25L46.05-8.25Q46.05-16.4 55.8-16.4L55.8-16.4 58.55-16.4 58.55-16.9Q58.55-18.2 58.12-18.57 57.7-18.95 56.15-18.95L56.15-18.95Q54.25-18.95 50.75-18.15ZM54.75-8.95L54.75-8.95Q54.75-7.85 55.35-7.28 55.95-6.7 56.87-6.7 57.8-6.7 58.55-7.45L58.55-7.45 58.55-11.3 57.15-11.3Q54.75-11.3 54.75-8.95ZM85.2-16.45L88.45-24.85Q88.65-25.25 90.95-25.25L90.95-25.25Q98.45-25.25 98.25-24.7L98.25-24.7 92.15-12.05Q98.3-0.55 98.3-0.55L98.3-0.55Q98.3-0.25 95.3-0.05 92.3 0.15 91.05 0.15L91.05 0.15Q87.9 0.15 87.7-0.5L87.7-0.5 85-8.85 81.9-0.15Q81.8 0.2 79.05 0.2 76.3 0.2 74.15 0 72-0.2 72.2-0.5L72.2-0.5 77.85-12Q71.95-24.35 71.95-24.4L71.95-24.4Q71.95-24.7 73.47-24.95 75-25.2 76.92-25.2 78.85-25.2 80.6-25.03 82.35-24.85 82.55-24.55L82.55-24.55 85.2-16.45ZM110.44-24.85L110.44-0.3Q110.44 0.1 105.87 0.1 101.29 0.1 101.29-0.25L101.29-0.25 101.29-24.8Q101.29-25.15 105.87-25.15 110.44-25.15 110.44-24.85L110.44-24.85ZM110.44-35.15L110.44-27.8Q110.44-27.45 105.87-27.45 101.29-27.45 101.29-27.75L101.29-27.75 101.29-34.95Q101.29-35.45 105.87-35.45 110.44-35.45 110.44-35.15L110.44-35.15ZM137.59-16.3L137.59-0.25Q137.59 0.1 133.32 0.1 129.04 0.1 129.04-0.35L129.04-0.35 129.04-14.9Q129.04-17.4 127.39-17.4L127.39-17.4Q126.54-17.4 125.14-16.3L125.14-16.3 125.14-0.3Q125.14 0.2 120.87 0.2 116.59 0.2 116.59-0.35L116.59-0.35 116.59-16.7 115.34-16.7Q113.69-16.7 113.69-20.15L113.69-20.15Q113.69-21.7 114.29-23.3L114.29-23.3Q115.09-25.5 116.89-25.5 118.69-25.5 120.37-24.55 122.04-23.6 122.39-22.75L122.39-22.75Q125.49-25.5 129.27-25.5 133.04-25.5 135.34-23.15L135.34-23.15Q138.04-25.5 141.84-25.5L141.84-25.5Q150.09-25.5 150.09-15.45L150.09-15.45 150.09-0.25Q150.09 0.1 145.82 0.1 141.54 0.1 141.54-0.35L141.54-0.35 141.54-14.9Q141.54-17.4 139.89-17.4L139.89-17.4Q138.99-17.4 137.59-16.3L137.59-16.3ZM163.49-24.85L163.49-0.3Q163.49 0.1 158.91 0.1 154.34 0.1 154.34-0.25L154.34-0.25 154.34-24.8Q154.34-25.15 158.91-25.15 163.49-25.15 163.49-24.85L163.49-24.85ZM163.49-35.15L163.49-27.8Q163.49-27.45 158.91-27.45 154.34-27.45 154.34-27.75L154.34-27.75 154.34-34.95Q154.34-35.45 158.91-35.45 163.49-35.45 163.49-35.15L163.49-35.15ZM176.64-17.3L167.89-17Q167.54-17 167.54-19.15L167.54-19.15Q167.54-25 168.49-25L168.49-25 184.44-25Q184.79-25 185.99-22.8 187.19-20.6 187.19-20.33 187.19-20.05 187.14-20L187.14-20 177.44-7.8 186.14-8.4Q186.94-8.4 186.94-4.85L186.94-4.85Q186.94-3.5 186.69-1.75 186.44 0 185.84 0L185.84 0 169.84 0Q169.09 0 168.04-2.5 166.99-5 166.99-5.53 166.99-6.05 167.09-6.15L167.09-6.15 176.64-17.3ZM209.58-1.35L209.58-1.35Q206.43 0.5 201.48 0.5 196.53 0.5 193.13-2.88 189.73-6.25 189.73-12.23 189.73-18.2 193.01-21.85 196.28-25.5 201.28-25.5 206.28-25.5 209.01-22.95 211.73-20.4 211.73-16.75L211.73-16.75Q211.73-8.65 202.43-8.65L202.43-8.65 198.98-8.65Q198.98-7.15 199.81-6.58 200.63-6 202.23-6L202.23-6Q205.73-6 208.88-7.6L208.88-7.6Q208.93-7.65 209.33-6.9L209.33-6.9Q210.53-4.75 210.53-3.28 210.53-1.8 209.58-1.35ZM203.33-15.8L203.33-15.8Q203.33-17.9 201.28-17.9L201.28-17.9Q200.33-17.9 199.66-17.32 198.98-16.75 198.98-15.65L198.98-15.65 198.98-14.1 201.68-14.1Q203.33-14.1 203.33-15.8ZM231.13-2L222.63-24.75Q222.63-25.3 227.2-25.3 231.78-25.3 231.93-24.8L231.93-24.8 235.53-13 238.98-24.9Q239.18-25.3 242.08-25.3L242.08-25.3Q248.73-25.3 248.43-24.65L248.43-24.65 236.68 8.8Q236.63 9.1 233.95 9.1 231.28 9.1 228.98 8.93 226.68 8.75 226.78 8.5L226.78 8.5 231.13-2ZM253.4-2.95Q250.28-6.4 250.28-12.5 250.28-18.6 253.4-22.05 256.53-25.5 261.83-25.5 267.13-25.5 270.23-22.05 273.33-18.6 273.33-12.5 273.33-6.4 270.23-2.95 267.13 0.5 261.83 0.5 256.53 0.5 253.4-2.95ZM261.85-17.15Q259.03-17.15 259.03-12.55 259.03-7.95 261.85-7.95 264.68-7.95 264.68-12.55 264.68-17.15 261.85-17.15ZM276.62-9.95L276.62-24.7Q276.62-25.25 280.92-25.25 285.22-25.25 285.22-24.7L285.22-24.7 285.22-10.1Q285.22-7.6 286.82-7.6L286.82-7.6Q288.02-7.6 289.52-8.65L289.52-8.65 289.52-24.7Q289.52-25.2 293.77-25.2 298.02-25.2 298.02-24.7L298.02-24.7 298.02-8.3 299.32-8.3Q301.02-8.3 301.02-5.05L301.02-5.05Q301.02-3.4 300.32-1.7L300.32-1.7Q299.32 0.5 297.62 0.5L297.62 0.5Q294.27 0.5 292.67-2.25L292.67-2.25 292.62-2.2Q289.57 0.5 286.07 0.5L286.07 0.5Q281.22 0.5 278.92-1.93 276.62-4.35 276.62-9.95L276.62-9.95ZM315.02-14L315.02-0.05Q315.02 0.3 310.47 0.3L310.47 0.3Q305.92 0.2 305.92-0.1L305.92-0.1 305.92-16.7 304.57-16.7Q303.77-16.7 303.3-17.68 302.82-18.65 302.82-20.1L302.82-20.1Q302.82-25.5 306.02-25.5L306.02-25.5Q308.27-25.5 309.77-24.13 311.27-22.75 311.27-21L311.27-21Q312.32-23.05 314.1-24.28 315.87-25.5 317.72-25.5L317.72-25.5Q320.62-25.5 321.22-24L321.22-24Q321.37-23.6 321.37-22.83 321.37-22.05 320.9-20.05 320.42-18.05 319.92-17.15 319.42-16.25 319.32-16.25 319.22-16.25 318.4-16.63 317.57-17 316.92-17L316.92-17Q315.02-17 315.02-14L315.02-14ZM342.37-34.65L342.37-0.4Q342.37 0.05 337.27 0.05L337.27 0.05Q333.27 0 333.27-0.35L333.27-0.35 333.27-34.4Q333.27-35.15 338.12-35.15L338.12-35.15Q342.37-35 342.37-34.65L342.37-34.65ZM356.01-24.85L356.01-0.3Q356.01 0.1 351.44 0.1 346.86 0.1 346.86-0.25L346.86-0.25 346.86-24.8Q346.86-25.15 351.44-25.15 356.01-25.15 356.01-24.85L356.01-24.85ZM356.01-35.15L356.01-27.8Q356.01-27.45 351.44-27.45 346.86-27.45 346.86-27.75L346.86-27.75 346.86-34.95Q346.86-35.45 351.44-35.45 356.01-35.45 356.01-35.15L356.01-35.15ZM383.16-16.3L383.16-0.25Q383.16 0.1 378.89 0.1 374.61 0.1 374.61-0.35L374.61-0.35 374.61-14.9Q374.61-17.4 372.96-17.4L372.96-17.4Q372.11-17.4 370.71-16.3L370.71-16.3 370.71-0.3Q370.71 0.2 366.44 0.2 362.16 0.2 362.16-0.35L362.16-0.35 362.16-16.7 360.91-16.7Q359.26-16.7 359.26-20.15L359.26-20.15Q359.26-21.7 359.86-23.3L359.86-23.3Q360.66-25.5 362.46-25.5 364.26-25.5 365.94-24.55 367.61-23.6 367.96-22.75L367.96-22.75Q371.06-25.5 374.84-25.5 378.61-25.5 380.91-23.15L380.91-23.15Q383.61-25.5 387.41-25.5L387.41-25.5Q395.66-25.5 395.66-15.45L395.66-15.45 395.66-0.25Q395.66 0.1 391.39 0.1 387.11 0.1 387.11-0.35L387.11-0.35 387.11-14.9Q387.11-17.4 385.46-17.4L385.46-17.4Q384.56-17.4 383.16-16.3L383.16-16.3ZM409.06-24.85L409.06-0.3Q409.06 0.1 404.48 0.1 399.91 0.1 399.91-0.25L399.91-0.25 399.91-24.8Q399.91-25.15 404.48-25.15 409.06-25.15 409.06-24.85L409.06-24.85ZM409.06-35.15L409.06-27.8Q409.06-27.45 404.48-27.45 399.91-27.45 399.91-27.75L399.91-27.75 399.91-34.95Q399.91-35.45 404.48-35.45 409.06-35.45 409.06-35.15L409.06-35.15ZM425.06-18L425.06-0.3Q425.06 0.3 420.86 0.3L420.86 0.3Q415.86 0.1 415.86-0.35L415.86-0.35 415.86-18.05 413.31-18.05Q412.31-18.05 412.31-21.5L412.31-21.5Q412.31-22.4 412.48-23.7 412.66-25 413.21-25L413.21-25 415.86-25 415.86-29.4Q415.86-30.4 420.08-30.4 424.31-30.4 424.31-29.6L424.31-29.6 424.31-26.4 424.36-25 428.61-25Q429.46-25 429.46-21.5 429.46-18 428.61-18L428.61-18 425.06-18ZM433-9L433-9Q437.05-6.55 439.4-6.55L439.4-6.55Q440.9-6.55 440.9-7.6L440.9-7.6Q440.9-8.35 438.3-9.55L438.3-9.55Q432.05-12.1 432.05-17.9L432.05-17.9Q432.05-21.6 434.75-23.55 437.45-25.5 441.23-25.5 445-25.5 447.63-24.7 450.25-23.9 450.25-22.6L450.25-22.6Q450.25-21.5 449.18-19.7 448.1-17.9 447.7-17.75L447.7-17.75Q445.55-18.95 443.05-18.95L443.05-18.95Q441.7-18.95 441.7-18L441.7-18Q441.7-17.4 442.23-16.98 442.75-16.55 444.15-15.93 445.55-15.3 446.48-14.8 447.4-14.3 448.55-13.4L448.55-13.4Q450.95-11.5 450.95-8.45L450.95-8.45Q450.95-4.45 448.3-1.98 445.65 0.5 440.3 0.5L440.3 0.5Q436.75 0.5 433.85-0.7 430.95-1.9 430.95-4L430.95-4Q430.95-5.4 431.63-6.95 432.3-8.5 433-9ZM458-2.85L458.2-7.4Q458.5-8.2 462.45-8.2 466.4-8.2 466.4-7.15L466.4-7.15 466.3-2.9 463.4 3.9Q462.75 5.35 459.38 5.35 456 5.35 455.1 4.25L455.1 4.25Q454.9 4 454.9 3.78 454.9 3.55 454.95 3.35L454.95 3.35 458-2.85ZM498-1.35L498-1.35Q494.85 0.5 489.9 0.5 484.95 0.5 481.55-2.88 478.15-6.25 478.15-12.23 478.15-18.2 481.42-21.85 484.7-25.5 489.7-25.5 494.7-25.5 497.42-22.95 500.15-20.4 500.15-16.75L500.15-16.75Q500.15-8.65 490.85-8.65L490.85-8.65 487.4-8.65Q487.4-7.15 488.22-6.58 489.05-6 490.65-6L490.65-6Q494.15-6 497.3-7.6L497.3-7.6Q497.35-7.65 497.75-6.9L497.75-6.9Q498.95-4.75 498.95-3.28 498.95-1.8 498-1.35ZM491.75-15.8L491.75-15.8Q491.75-17.9 489.7-17.9L489.7-17.9Q488.75-17.9 488.07-17.32 487.4-16.75 487.4-15.65L487.4-15.65 487.4-14.1 490.1-14.1Q491.75-14.1 491.75-15.8ZM513.84-16.35L513.84-0.3Q513.84 0.05 510.24 0.05L510.24 0.05Q505.24-0.1 505.24-0.5L505.24-0.5 505.24-16.7 503.94-16.7Q502.64-16.7 502.24-18.9L502.24-18.9Q502.14-19.55 502.14-20.2L502.14-20.2Q502.14-21.75 502.74-23.3L502.74-23.3Q503.64-25.5 505.54-25.5 507.44-25.5 508.94-24.6 510.44-23.7 510.94-22.8L510.94-22.8Q514.09-25.5 518.44-25.5 522.79-25.5 524.74-23.15 526.69-20.8 526.69-15.45L526.69-15.45 526.69-0.45Q526.69 0.15 522.42 0.15 518.14 0.15 518.14-0.45L518.14-0.45 518.14-14.9Q518.14-17.4 516.39-17.4L516.39-17.4Q515.89-17.4 514.99-16.98 514.09-16.55 513.84-16.35L513.84-16.35ZM530.94-1.75L530.94-1.75 530.94-24.8Q530.94-25.1 535.46-25.1 539.99-25.1 539.99-24.85L539.99-24.85 539.99 1.8Q539.99 5.5 536.91 7.68 533.84 9.85 529.24 9.85L529.24 9.85Q522.79 9.85 522.79 5.35L522.79 5.35Q522.79 3.85 523.29 2.85L523.29 2.85Q523.74 2.9 524.54 2.9L524.54 2.9Q528.19 2.9 529.56 1.75 530.94 0.6 530.94-1.75ZM530.94-27.75L530.94-27.75 530.94-34.95Q530.94-35.45 535.46-35.45 539.99-35.45 539.99-35.15L539.99-35.15 539.99-27.8Q539.99-27.45 535.46-27.45 530.94-27.45 530.94-27.75ZM546.66-2.95Q543.54-6.4 543.54-12.5 543.54-18.6 546.66-22.05 549.79-25.5 555.09-25.5 560.39-25.5 563.49-22.05 566.59-18.6 566.59-12.5 566.59-6.4 563.49-2.95 560.39 0.5 555.09 0.5 549.79 0.5 546.66-2.95ZM555.11-17.15Q552.29-17.15 552.29-12.55 552.29-7.95 555.11-7.95 557.94-7.95 557.94-12.55 557.94-17.15 555.11-17.15ZM576.88-2L568.38-24.75Q568.38-25.3 572.96-25.3 577.53-25.3 577.68-24.8L577.68-24.8 581.28-13 584.73-24.9Q584.93-25.3 587.83-25.3L587.83-25.3Q594.48-25.3 594.18-24.65L594.18-24.65 582.43 8.8Q582.38 9.1 579.71 9.1 577.03 9.1 574.73 8.93 572.43 8.75 572.53 8.5L572.53 8.5 576.88-2ZM606.23-35.15L605.23-10.5Q605.23-10.2 601.66-10.2 598.08-10.2 598.08-10.45L598.08-10.45 597.08-35.1Q597.08-35.5 601.66-35.5 606.23-35.5 606.23-35.15L606.23-35.15ZM596.98-0.15L596.98-7.5Q596.98-7.85 601.61-7.85 606.23-7.85 606.23-7.55L606.23-7.55 606.23-0.35Q606.23 0.15 601.61 0.15 596.98 0.15 596.98-0.15L596.98-0.15Z" opacity="1" transform="matrix(1,0,0,1,0,0)" fill="#000000" class="slogan-text-1" data-fill-palette-color="secondary" id="text-1"></path></svg></g></svg></g></svg></g></svg></g><g transform="matrix(1,0,0,1,126.72266270297976,0)"><svg viewBox="0 0 142.07467459404046 101.65056507922878" height="101.65056507922878" width="142.07467459404046"><g><svg xmlns="http://www.w3.org/2000/svg" xmlns:xlink="http://www.w3.org/1999/xlink" version="1.1" x="0" y="0" viewBox="5.000000555708663 17.8037243 89.99999944429133 64.3925515" style="enable-background:new 0 0 100 100;" xml:space="preserve" height="101.65056507922878" width="142.07467459404046" class="icon-icon-0" data-fill-palette-color="accent" id="icon-0"><g fill="#ffffff" data-fill-palette-color="accent"><g fill="#ffffff" data-fill-palette-color="accent"><path d="M67.785 48.702c7.776 0 14.119-6.957 14.119-15.551S75.356 17.804 67.785 17.804c-7.776 0-14.119 6.957-14.12 15.551S60.009 48.702 67.785 48.702" fill="#000000" data-fill-palette-color="accent"></path></g><path d="M80.267 48.907c0 0-5.32 4.093-12.687 4.092-6.957 0-12.687-4.093-12.687-4.092-1.795 0-3.52 0.112-5.128 0.365l-5.077-26.059c-0.255-1.306-1.535-2.163-2.831-1.906l-12.503 2.436c-0.514-0.088-2.187-0.45-2.906-1.527-0.853-1.279-1.684-1.886-2.847-1.66-1.16 0.226-1.716 1.103-2.026 2.609-0.261 1.269-1.677 2.232-2.12 2.507l-12.502 2.436c-0.631 0.123-1.177 0.485-1.539 1.021-0.361 0.536-0.492 1.179-0.369 1.809l9.607 49.307c0.123 0.631 0.486 1.178 1.023 1.539 0.404 0.271 0.869 0.412 1.343 0.412 0.155 0 0.31-0.014 0.465-0.045l34.904-6.8c0.635-0.123 1.16-0.489 1.506-0.98 4.031 0.803 8.697 1.34 13.687 1.137C85.587 74.69 95 69.779 95 69.779V58.934C95 50.749 88.452 48.907 80.267 48.907zM23.782 21.511c0.651-0.127 1.283 0.298 1.409 0.95 0.127 0.651-0.298 1.283-0.95 1.409-0.651 0.127-1.283-0.298-1.409-0.95C22.705 22.269 23.13 21.638 23.782 21.511zM17.217 80.792c-0.263 0.052-0.537-0.002-0.769-0.158-0.229-0.153-0.385-0.386-0.437-0.654L6.404 30.673c-0.052-0.268 0.004-0.54 0.158-0.769 0.155-0.229 0.387-0.384 0.655-0.437l12.349-2.406 0.503 2.58c-2.061 0.489-4.105 1.036-4.872 1.441-1.757 0.927-1.368 3.711-1.368 3.712l24.164-4.709c0 0-0.685-2.727-2.661-2.926-0.862-0.087-2.962 0.173-5.057 0.494l-0.502-2.581 12.349-2.406c0.066-0.013 0.132-0.019 0.197-0.019 0.482 0 0.913 0.341 1.01 0.832l5.076 26.052c-4.832 1.087-8.245 3.795-8.245 9.607v10.845c0 0 4.736 2.364 11.946 4.012L17.217 80.792z" fill="#000000" data-fill-palette-color="accent"></path></g></svg></g></svg></g><g></g></svg></g><defs></defs></svg><rect width="395.52" height="185.74531570802844" fill="none" stroke="none" visibility="hidden"></rect></g></svg></g></svg>